<?xml version="1.0" encoding="iso-8859-1"?>
<!-- Generator: Adobe Illustrator 19.0.0, SVG Export Plug-In . SVG Version: 6.00 Build 0)  -->
<svg xmlns="http://www.w3.org/2000/svg" xmlns:xlink="http://www.w3.org/1999/xlink" version="1.1" id="Capa_1" x="0px" y="0px" viewBox="0 0 510 510" style="enable-background:new 0 0 510 510;" xml:space="preserve" width="512" height="512">
<g>
	<path d="M388.367,494.727c-0.08-49.249-21.996-95.385-60.156-126.619c-34.667-28.375-54.55-69.703-54.55-113.386v-6.944   c0-43.683,19.883-85.01,54.549-113.386C366.44,103.1,388.367,56.85,388.367,7.5V0H120.532v7.5c0,49.35,21.927,95.6,60.157,126.892   c34.666,28.375,54.549,69.703,54.549,113.386v6.944c0,43.683-19.883,85.011-54.549,113.386   c-38.23,31.292-60.157,77.542-60.157,126.892v15h268.937L388.367,494.727z M151.735,427.351l8.95-3.513l0.214-0.088   c14.943-6.404,30.884-10.103,46.99-11.053l0.1,0.245l0.722-0.294c14.774-0.785,29.676,0.745,44.066,4.642   c27.784,7.525,57.06,7.18,84.662-0.998l10.593-4.416c10.82,16.05,18.402,34.068,22.298,53.124h-231.76   C141.256,451.856,145.688,439.203,151.735,427.351z M333.029,401.923l-0.242,0.102c-24.818,7.276-51.12,7.549-76.089,0.786   c-5.107-1.383-10.272-2.494-15.472-3.34c26.279-9.641,55.205-10.112,81.814-1.273L333.029,401.923z M190.189,122.785   C165.382,102.479,148.138,75.242,140.303,45h40.479V30H137.23c-0.75-4.946-1.261-9.95-1.512-15H373.18   c-0.251,5.05-0.762,10.054-1.512,15h-174.01v15h170.938c-7.835,30.242-25.079,57.479-49.886,77.785   c-2.734,2.238-5.375,4.557-7.939,6.938l-0.041-0.233l-16.245,2.867c-8.968,1.582-18.253,0.837-26.853-2.154   c-20.078-6.982-41.831-4.365-59.682,7.184l-1.288,0.833C201.57,132.763,196.075,127.602,190.189,122.785z M216.468,149.754   c13.868-8.819,30.689-10.792,46.236-5.385c10.076,3.506,20.887,4.595,31.449,3.203c-22.716,28.313-35.357,63.209-35.484,99.649   h-8.438C250.106,211.713,238.1,177.669,216.468,149.754z M190.189,379.715c36.176-29.61,57.712-72.093,59.858-117.494h8.805   c2.145,45.4,23.682,87.883,59.858,117.494c0.934,0.764,1.851,1.543,2.763,2.327c-29.133-8.16-60.329-6.603-88.637,4.573   l-27.502,11.212c-13.727,0.957-27.326,3.73-40.38,8.277C172.171,396.428,180.614,387.553,190.189,379.715z M135.532,495   c0-5.042,0.266-10.045,0.762-15h236.311c0.497,4.955,0.762,9.958,0.762,15H135.532z"/>
	<rect x="182.658" y="435" width="75" height="15"/>
	<rect x="272.658" y="435" width="15" height="15"/>
	<rect x="227.658" y="360" width="15" height="15"/>
	<rect x="242.658" y="345" width="15" height="15"/>
	<rect x="257.658" y="60" width="52.5" height="15"/>
	<rect x="325.158" y="60" width="15" height="15"/>
	<rect x="246.408" y="315" width="15" height="15"/>
</g>















</svg>
